# xmcd
#
# Track frame offsets:
#	150
#	19769
#	43991
#	64983
#	88822
#	113944
#	133517
#	153029
#	176303
#	210480
#	260812
#	274660
#
# Disc length: 3957 seconds
#
# Revision: 0
# Processed by: cddbd v1.5.2PL0 Copyright (c) Steve Scherf et al.
# Submitted via: EZCDAudioConverter 1.3.4.1
#
DISCID=a80f730c
DTITLE=Robert Plant - Principle Of Moments
DYEAR=1983
DGENRE=
TTITLE0=Other Arms
TTITLE1=In The Mood
TTITLE2=Messin' With The Mekon
TTITLE3=Wreckless Love
TTITLE4=Thru' With The Two Step
TTITLE5=Horizontal Departure
TTITLE6=Stranger Here... Than Over There
TTITLE7=Big Log
TTITLE8=In The Mood [Live]
TTITLE9=Thru' With The Two Step [Live]
TTITLE10=Lively Up Yourself [Live]
TTITLE11=Turnaround
EXTD=
EXTT0=
EXTT1=
EXTT2=
EXTT3=
EXTT4=
EXTT5=
EXTT6=
EXTT7=
EXTT8=
EXTT9=
EXTT10=
EXTT11=
PLAYORDER=
